<?xml version="1.0" encoding="UTF-8"?><svg id="DESIGNED_BY_FREEPIK" xmlns="http://www.w3.org/2000/svg" width="86" height="70" viewBox="0 0 86 70"><defs><style>.cls-1{fill:#f2b099;}.cls-1,.cls-2,.cls-3,.cls-4,.cls-5,.cls-6,.cls-7,.cls-8,.cls-9{stroke-width:0px;}.cls-2{fill:#406fb5;}.cls-3{fill:#333;}.cls-4{fill:#ecf0f5;}.cls-5{fill:#e29969;}.cls-6{fill:#f4ae7c;}.cls-7{fill:#db9172;}.cls-8{fill:#4c4c4c;}.cls-9{fill:#ea8c63;}</style></defs><path class="cls-2" d="M58.57,52.94c-5.41,10.15-16.11,17.06-28.43,17.06S7.34,63.23,1.88,53.24c1.94-1.71,4.6-3.38,6.44-4.23,2.65-1.23,5.95-2.4,9.8-3,3.84-.6,8.06-.84,12.03-.84,11.08,0,16.52,1.66,21.83,3.84,2.29.94,4.75,2.4,6.6,3.93Z"/><path class="cls-6" d="M38.08,45.64v-7.67h-15.87v7.67c-2.41.41-4.09,1.23-4.09,2.96,0,3.37,4.57,6.88,12.02,6.88s12.02-3.51,12.02-6.88c0-1.73-1.68-2.55-4.09-2.96Z"/><path class="cls-5" d="M20.46,28.58c0-2.38-1.05-5.29-2.33-5.29s-2.61.46-2.61,2.84c0,1.15.41,3.72.8,4.85.43,1.21,1.14,1.91,1.81,1.91,1.29,0,2.33-1.93,2.33-4.32Z"/><path class="cls-5" d="M39.83,28.58c0-2.38,1.05-5.29,2.33-5.29s2.61.46,2.61,2.84c0,1.15-.41,3.72-.8,4.85-.43,1.21-1.14,1.91-1.81,1.91-1.29,0-2.33-1.93-2.33-4.32Z"/><path class="cls-5" d="M38.08,39.76v4.07c-.33.29-.68.56-1.04.82-1.38.97-2.36,1.6-3.26,1.98-.91.38-1.75.52-2.86.52-2.22,0-3.36-.56-6.12-2.5-.97-.69-1.84-1.5-2.59-2.43v-2.45c.55.57,1.16,1.09,1.81,1.55,2.76,1.95,3.9,2.51,6.12,2.51,1.11,0,1.95-.14,2.86-.52.91-.38,1.88-1.01,3.26-1.98.66-.46,1.26-.98,1.81-1.56Z"/><path class="cls-6" d="M30.14,8.63h0s0,0,0,0c-9.55,0-12.16,8.23-12.16,18.38,0,6.73,2.1,11.53,6.03,14.3,2.76,1.95,3.9,2.5,6.12,2.5h0s0,0,0,0c2.22,0,3.36-.56,6.12-2.5,3.93-2.77,6.03-7.56,6.03-14.3,0-10.15-2.61-18.38-12.16-18.38Z"/><path class="cls-5" d="M30.14,8.63c-.16,0-.32,0-.48.01,8.45.28,10.78,8.39,10.78,18.37,0,6.73-1.94,11.53-5.57,14.3-2.36,1.8-3.44,2.41-5.21,2.49.16,0,.32.01.48.01,2.22,0,3.36-.56,6.12-2.5,3.93-2.77,6.03-7.56,6.03-14.3,0-10.15-2.61-18.38-12.16-18.38Z"/><path class="cls-3" d="M45.86,12.87c-.09-2.29-.58-5.46-3.86-6.37-.97-.27-2.02-.74-2.77-1.13-1.22-.63-2.32-2.06-5.78-3.52C30.58.64,25.21-.48,22.39.21c-3.91.96-3.94,3.93-4.97,5.07-1.13,1.25-3.11,2.48-3.29,4.09-.28,2.42,1.89,4.24,1.8,6.54-.07,1.85-.7,3.72-.25,5.59.24.99,1.46,1.72,1.64,2.73.11.59.25,2,.68,2.48.92,1.02.92-5.54,1.14-7.49.18-1.64.7-3.49,1.64-4.89,1.22-1.8,3.17-1.59,5.08-1.17,1.94.42,3.76.81,5.78.58,2.02-.24,4.16-1.14,6.12-.2,1.85.89,2.92,2.89,3.36,4.81.22.96.03,7.45,1.05,7.88.54.23.73-1.91,1.74-2.64.87-.62,1.13-1.37,1.32-2.4.48-2.53.73-5.76.63-8.32Z"/><path class="cls-7" d="M42.16,26.22c-1.02-.43-.83-6.92-1.05-7.88-.44-1.92-1.51-3.92-3.36-4.81-1.97-.95-4.11-.04-6.12.19-2.02.24-3.83-.16-5.78-.58-1.91-.42-3.86-.63-5.08,1.17-.95,1.4-1.46,3.24-1.64,4.89-.2,1.81-.22,7.6-.95,7.6.78.09,1.1-4.67,1.3-6.27.18-1.45.52-3.86,1.48-5.09,1.83-2.35,3.78-1.72,5.62-1.06,2.03.73,3.04,1.11,5.05.9,2.02-.21,4.16-1,6.12-.17,1.85.78,3.03,2.34,3.29,4.47.1.87.1,6.32,1.12,6.7.06.02.1,0,.12-.06-.04,0-.08,0-.12-.01ZM17.92,26.62s.04.08.07.1c.02.02.05.04.07.06-.02-.02-.05-.04-.07-.07-.02-.03-.05-.06-.07-.09Z"/><path class="cls-8" d="M33.45,1.85C30.58.64,25.21-.48,22.39.21c-3.91.96-3.94,3.93-4.97,5.07-1.13,1.25-3.11,2.48-3.29,4.09-.28,2.43,1.89,4.24,1.8,6.54-.07,1.85-.7,3.72-.25,5.59.02.07.03.12.05.16,0,0,0,.02,0,.02.16.3.12-2.12,1.25-3.69,1.23-1.7,1.11-4.75.09-7.56-.4-1.09-.54-3.76,3.1-4.03,1.58-.12,3.03-1.91,5.12-3.38,3.73-2.63,9.82,1.58,11.37,1.3.11-.02.2-.04.28-.07-.85-.85-1.98-1.77-3.47-2.39Z"/><path class="cls-4" d="M82.79,45.94l-4.48-9.58-.54-1.15h-43.58l-.54,1.15-4.48,9.58-1.33,2.85h5.63v16.9c0,2.09,1.7,3.8,3.8,3.8h18.72s18.72,0,18.72,0c2.09,0,3.8-1.7,3.8-3.8v-16.9h5.63l-1.33-2.85Z"/><path class="cls-9" d="M35.46,65.68c0,.99.8,1.8,1.8,1.8h18.72v-30.27l-20.52,9.58v18.9Z"/><path class="cls-1" d="M55.98,67.48h18.72c.99,0,1.8-.8,1.8-1.8v-18.9l-20.52-9.58v30.28Z"/><path class="cls-1" d="M30.98,46.79h20.52l4.48-9.58h-20.52l-4.48,9.58Z"/><path class="cls-9" d="M55.98,37.21l4.48,9.58h20.52l-4.48-9.58h-20.52Z"/></svg>