<?xml version="1.0" encoding="UTF-8"?><svg id="a" xmlns="http://www.w3.org/2000/svg" viewBox="0 0 79.94 68.3"><rect x="4.77" y="5.48" width="70.39" height="46.12" style="fill:#1b77ba;"/><path d="m52.66,31.07c-.59,4.86-3.46,9.16-7.71,11.58-3.14,1.94-7.11,1.94-10.26,0-3.65-2.16-6.86-5-9.44-8.38l-1.3-1.57c.76,4.19,2.39,8.15,4.78,11.64,1.1,1.32,2.51,2.33,4.11,2.95,3.43,1.32,6.97,2.44,10.54,3.32.06.02.13.03.2.05.78.17,1.8.24,1.77,1.35-.03,1.21-1.13,1.58-2.11,1.91-.65.2-1.35.2-2.02,0-3.22-.68-6.35-1.78-9.28-3.26-.43-.22-.85-.44-1.27-.67-2.67-1.58-4.75-4.05-5.82-6.97-1.26-3.04-2.39-6.22-3.51-9.45-.14,1.21-.42,2.36-.42,3.51-.4,3.6-1.24,7.14-2.56,10.52-.49,1.19-1.22,2.21-2.12,3.06-3.3,3.15-8.87,4.03-13.39,2.78C1.08,51.49,0,48.84,0,45.9v-14.26c.39-.45.81-.89,1.24-1.33,1.42-1.42,2.92-2.74,4.5-3.98,1.39-1.09,2.85-2.11,4.36-3.05.56-.25,1.04-.65,1.4-1.15-1.91.16-3.84.22-5.76.18-1.08-.03-2.16-.09-3.23-.18-.84-.07-1.68-.19-2.51-.35v-10.91C0,6,3,1.89,7.13.51c.06.05.12.11.18.17,1.68,1.69,3.22,3.5,4.6,5.43,2.01,2.81,3.68,5.86,4.96,9.07.23.62.56,1.21,1.01,1.72v-1.66c-.29-3.04-.39-6.09-.29-9.13.07-2.04.24-4.08.49-6.11h25.67c-.4,1.65-1.14,3.23-2.23,4.64-.37.5-.74.99-1.13,1.47-2.75,3.45-5.91,6.56-9.41,9.27l-1.66,1.29c2.17.14,3.88.23,5.68.4,3.99.22,7.9,1.18,11.56,2.78,4.58,1.6,7.22,6.44,6.1,11.22Z" style="fill:#3da2db;"/><path d="m69.8,0H10.2C9.13,0,8.1.17,7.13.51,3,1.89,0,6,0,10.87v35.03C0,48.84,1.08,51.49,2.85,53.44c1.86,2.05,4.47,3.33,7.35,3.33h22.76v6.07h-10.95c-1.51,0-2.73,1.22-2.73,2.73,0,.75.31,1.43.8,1.92.49.5,1.17.8,1.93.8h35.98c1.51,0,2.73-1.22,2.73-2.72,0-.76-.31-1.44-.8-1.93s-1.17-.8-1.93-.8h-10.95v-6.07h22.76c5.63,0,10.2-4.86,10.2-10.87V10.87C80,4.86,75.43,0,69.8,0Zm4.46,45.9c0,1.27-.46,2.47-1.3,3.37-.85.9-1.97,1.39-3.16,1.39H10.2c-1.19,0-2.31-.49-3.16-1.39-.84-.9-1.3-2.1-1.3-3.37V10.87c0-1.27.46-2.47,1.3-3.37.85-.9,1.97-1.39,3.16-1.39h59.6c1.19,0,2.31.49,3.16,1.39.84.9,1.3,2.1,1.3,3.37v35.03Z" style="fill:#2d2d2d;"/><path d="m21.27,21.67c1.33.88,1.99,2.43,1.99,4.64,0,2.91-.71,5.26-2.12,7.06-1.42,1.8-3.76,2.7-7.03,2.7h-5.22l2.19-15.73h4.9c2.2,0,3.96.44,5.29,1.32Zm-6.08,1.96l-1.29,9.17h.88c1.42,0,2.4-.64,2.95-1.93s.82-2.79.82-4.51c0-1.02-.2-1.74-.59-2.14s-1-.6-1.83-.6h-.95Z" style="fill:#fff;"/><path d="m30.2,20.35l-2.19,15.73h-4.57l2.19-15.73h4.57Z" style="fill:#fff;"/><path d="m42.19,21.51c1.06.78,1.59,1.9,1.59,3.38,0,1.02-.24,2.01-.72,2.97-.48.96-1.25,1.75-2.31,2.37s-2.39.94-4,.94h-1.54l-.68,4.9h-4.57l2.19-15.73h5.56c1.91,0,3.4.39,4.46,1.16Zm-3.65,5.53c.36-.57.54-1.2.54-1.88,0-1.05-.61-1.58-1.83-1.58h-.97l-.61,4.32h1.04c.86,0,1.47-.29,1.83-.86Z" style="fill:#fff;"/><path d="m56.48,22.07l-2.31,2.37c-.92-.83-1.96-1.24-3.12-1.24-.6,0-1.07.12-1.39.35-.32.23-.49.54-.49.91,0,.26.07.47.22.63.14.17.38.32.72.47.34.15.85.34,1.53.57,1.37.47,2.38,1.07,3.02,1.8.64.73.96,1.65.96,2.77,0,.99-.23,1.93-.7,2.81-.47.88-1.23,1.6-2.28,2.17s-2.41.85-4.07.85c-1.34,0-2.52-.22-3.53-.67-1.01-.45-1.86-1.02-2.55-1.73l2.55-2.6c1.01,1.01,2.22,1.51,3.64,1.51.68,0,1.2-.13,1.56-.38.36-.26.54-.63.54-1.11,0-.42-.16-.78-.49-1.06-.32-.29-.9-.57-1.73-.86-1.51-.5-2.58-1.12-3.23-1.86s-.97-1.64-.97-2.68c0-.92.23-1.77.7-2.55s1.19-1.42,2.17-1.91,2.19-.73,3.64-.73c2.32,0,4.19.72,5.6,2.17Z" style="fill:#fff;"/><path d="m71.06,20.35l-6.3,9.92-.81,5.81h-4.56l.81-5.79-3.55-9.94h4.9l1.42,6.42,3.21-6.42h4.88Z" style="fill:#fff;"/></svg>